<?xml version="1.0" encoding="utf-8"?>
<!-- Generator: Adobe Illustrator 24.0.0, SVG Export Plug-In . SVG Version: 6.00 Build 0)  -->
<svg version="1.1"
	 id="svg10" xmlns:cc="http://creativecommons.org/ns#" xmlns:dc="http://purl.org/dc/elements/1.1/" xmlns:inkscape="http://www.inkscape.org/namespaces/inkscape" xmlns:rdf="http://www.w3.org/1999/02/22-rdf-syntax-ns#" xmlns:sodipodi="http://sodipodi.sourceforge.net/DTD/sodipodi-0.dtd" xmlns:svg="http://www.w3.org/2000/svg"
	 xmlns="http://www.w3.org/2000/svg" xmlns:xlink="http://www.w3.org/1999/xlink" x="0px" y="0px" viewBox="0 0 604.8 139.2"
	 style="enable-background:new 0 0 604.8 139.2;" xml:space="preserve">
<style type="text/css">
	.st0{fill-rule:evenodd;clip-rule:evenodd;fill:#FFFFFF;}
</style>
<sodipodi:namedview  bordercolor="#666666" borderopacity="1" gridtolerance="10" guidetolerance="10" id="namedview12" inkscape:current-layer="svg10" inkscape:cx="776.22688" inkscape:cy="538.69944" inkscape:pageopacity="0" inkscape:pageshadow="2" inkscape:window-height="838" inkscape:window-maximized="1" inkscape:window-width="1600" inkscape:window-x="-8" inkscape:window-y="-8" inkscape:zoom="0.33781646" objecttolerance="10" pagecolor="#ffffff" showgrid="false">
	</sodipodi:namedview>
<title  id="title2">Paramount+ Home</title>
<g id="app-logo--ios" transform="matrix(3.8591297,0,0,3.8591297,52.795672,786.58331)" inkscape:export-filename="C:\Users\alex\sites\paramount-plus-logo-4.png" inkscape:export-xdpi="111.10513" inkscape:export-ydpi="111.10513">
	<g id="iPhone-App-3x" transform="translate(-11,-72)">
		<g id="Group" transform="translate(11.52,72)">
			<path id="Fill-33" inkscape:connector-curvature="0" class="st0" d="M25.9-194.6c0-6.2-6.6-9.2-14.4-9.2c-8.4,0-16,3.7-18.9,9.4
				c-0.8,1.5-1.2,3.2-1.2,4.9c0,1.5,0.4,3,1.2,4.2c1.2,1.8,3.4,2.9,6.5,2.9c3.9,0,7-2.1,7-5.8c0,0,0.1-1-1.2-1c-1,0-1.2,0.7-1.2,1
				c0.1,2.9-1.6,5.2-4.7,5.2c-3.5,0-4.9-2.9-4.9-6.1c0-6.4,4.8-10.7,9.9-12.5c2.4-0.9,4.8-1.3,7.4-1.3c5.7,0,10.4,2.2,10.4,8
				c0,4.9-4.1,9-9,9.4l0.2-0.7c1-3.6,2.2-7.5,4.3-10.4c0.1-0.2,0.3-0.5,0.5-0.7l-0.3-0.3c-0.4,0.3-0.8,0.5-1.2,0.9
				c-9.4,7.4-9.7,28-22.3,28c-0.4,0-0.9,0-1.3-0.1c-2.6-0.4-4-2.2-4-4.6c0-0.5,0.2-1.1,0.2-1.5c0-0.7-0.5-1.3-1.2-1.3h-0.1
				c-1.1,0-1.6,0.9-1.6,2.2c-0.1,3.6,2.6,5.8,6.8,6.2c0.5,0,0.9,0.1,1.4,0.1c9.8,0,15.8-7.4,18.4-16.4c1.3-0.1,2.6-0.4,3.8-0.8
				C20.7-186.2,25.9-189.3,25.9-194.6"/>
			<path id="Fill-34" inkscape:connector-curvature="0" class="st0" d="M80.9-185.4c-0.1,1.9-1.7,6.4-3.7,9.1
				c-0.8,1.1-1.4,1.4-2,1.4c-0.8,0-1-0.7-0.9-1.6c0.2-1.7,1.6-5.7,3.5-8.4c0.9-1.2,1.5-1.8,2.2-1.8S80.9-186.1,80.9-185.4z
				 M42.7-175.9c-0.5,0-0.8-0.2-0.9-0.8c0-1.7,1.4-4.7,3.2-7.1c1.2-1.7,2.8-2.9,4.6-2.9l-2.2,4.9C45.7-178.1,44-175.9,42.7-175.9z
				 M21.2-175.9c-0.5,0-0.8-0.2-0.8-0.8c0-1.7,1.4-4.7,3.2-7.1c1.2-1.7,2.8-2.9,4.6-2.9l-2.2,4.9C24.3-178.2,22.5-175.9,21.2-175.9
				L21.2-175.9z M119.3-192.5h-3.5l-0.8,1.8l-1.4,3H112l-0.5,1h1.7l-2,4.5c-1.4,3.1-3.7,6.2-5,6.2c-0.3,0-0.5-0.1-0.5-0.4
				c0-0.3,0.1-0.5,0.4-1.3c0.4-0.9,1.1-2.3,1.6-3.3c0.7-1.5,1.9-3.7,1.9-4.9c0-1.1-0.7-2-2.1-2c-1.6,0-3,0.9-4.3,2.3l0.9-2.1h-3.3
				l-2.6,6c-1.1,2.1-3.2,5.7-4.6,5.7c-0.3,0-0.4-0.2-0.4-0.5s0.1-0.5,0.2-0.7c0.1-0.3,1.7-4,1.7-4l2.9-6.6h-3.5l-2.8,6.4
				c-0.9,2-3,5.3-4.5,5.3c-0.2,0-0.5-0.1-0.5-0.4v-0.1c0-0.3,0.3-1,0.5-1.4l1.5-3.2l3-6.6h-3.5l-0.7,1.5c-0.5,1-1.4,2.2-2.8,2.2
				c-0.7,0-1-0.3-1.1-0.5c-0.2-2.2-1.6-3.4-3.7-3.4c-2.9,0-4.9,1.7-6.3,3.8c-0.9,1.4-1.6,3-2.1,4.6c-1.2,2-2.5,3.6-3.6,3.6
				c-0.3,0-0.4-0.1-0.4-0.5c0-0.3,0.3-1.1,0.5-1.4l2.3-4.8c0.6-1.5,1.1-2.5,1.1-3.4c0-1-0.7-1.8-1.9-1.8c-1.6,0-3.4,0.9-4.8,2.5
				c0.1-0.3,0.1-0.5,0.1-0.7c0-1.1-0.6-1.8-1.8-1.8c-1.5,0-3,0.9-4.5,2.5l0.9-2.2h-3.2l-2.7,6c-1.3,2.8-3.3,5.7-4.5,5.7
				c-0.3,0-0.4-0.1-0.4-0.5c0-0.5,0.6-1.9,0.8-2.4l3.5-8c0.3-0.6-1.4-1-3.6-1c-2.2,0-4.5,1.1-6.2,2.5c-1.2,1-2,1.5-2.5,1.5
				c-0.2,0-0.3-0.1-0.3-0.3c0-0.5,1.2-1.9,1.2-2.9c0-0.5-0.3-0.8-0.9-0.8c-1.3,0-2.8,1.2-3.9,2.5l0.9-2.2h-3.1l-2.7,6
				c-1.3,2.8-3.4,5.8-4.5,5.8c-0.3,0-0.4-0.1-0.4-0.5c0-0.5,0.6-1.9,0.9-2.6l3.5-8c0.3-0.6-1.4-1-3.6-1c-3.2,0-6.3,2.2-7.9,4.4
				c-1.8,2.4-3,4.9-3.1,7c0,1.7,0.8,2.7,2.6,2.7c1.9,0,3.5-1.5,4.4-2.7c-0.1,0.2-0.1,0.5-0.1,0.7c0,1.1,0.5,2,1.9,2
				c1.2,0,2.9-1,4.2-2.7l-1.1,2.4H32l3.3-7.5c1.1-2.4,2.3-3.7,2.7-3.7c0.1,0,0.2,0.1,0.2,0.1c0,0.3-0.5,0.9-0.5,1.6
				c0,0.6,0.3,1.1,1.3,1.1c0.7,0,1.5-0.3,2.2-0.8c-1.7,2.3-2.8,4.7-2.8,6.7c0,1.7,0.8,2.7,2.6,2.7s3.5-1.7,4.4-2.9
				c0,0.3-0.1,0.5-0.1,0.8c0,1.1,0.6,2.1,1.9,2.1c1.4,0,2.6-0.9,4-2.6l-1.1,2.4h3.5l3.2-7.2c1.4-3.1,3.2-4.8,4.2-4.8
				c0.2,0,0.4,0.1,0.5,0.4v0.1c0,0.3-0.1,0.7-0.3,1L56.6-174h3.5l3.2-7.3c1.4-3.1,2.9-4.7,4.1-4.7c0.3,0,0.5,0.2,0.5,0.5
				c0,0.4-0.1,0.8-0.3,1.1l-3.1,6.6c-0.3,0.6-0.5,1.3-0.5,2c0,1,0.5,1.9,2.1,1.9c2,0,3.5-1.5,5.3-3.8v0.5c0.1,1.8,1.2,3.4,3.8,3.4
				c3.2,0,5.7-2.2,7.3-5.7c0.6-1.2,1-2.5,1.1-3.9c0.3,0.2,0.7,0.3,1.1,0.2c0.5,0,1-0.1,1.5-0.4l-0.5,1.2c-0.6,1.3-1.3,2.8-1.9,4
				c-0.3,0.7-0.5,1.5-0.6,2.3c0,1.2,0.7,2.1,2.1,2.1s3.3-1.3,4.7-3.2l0,0c-0.1,0.4-0.1,0.8-0.1,1.2c0,1,0.3,2,1.8,2
				c1.7,0,3-1.2,4.2-2.7l-1.1,2.4h3.5l2.8-6.3c1.6-3.6,3.2-5.7,4.6-5.7c0.3,0,0.5,0.2,0.5,0.4v0.1c0,0.6-0.9,2.2-1.6,3.9
				c-0.7,1.5-1.3,2.6-1.6,3.5c-0.3,0.7-0.5,1.6-0.6,2.4c0,1.1,0.6,1.9,2,1.9c2,0,4.1-2,5.1-3.4c-0.3,0.7-0.4,1.4-0.4,2.2
				c0,2,1.2,3,2.9,3c1.1,0,2.2-0.4,3.1-1c1.3-0.9,2.4-2.3,3.3-3.6l-0.6-0.6c-0.8,1.2-1.8,2.3-2.7,3c-0.5,0.4-1.1,0.7-1.8,0.7
				c-0.7,0-1.2-0.4-1.2-1.3c0-0.9,0.4-2.2,1.1-3.8c0,0,1-2.2,1.9-4.2c0.7-1.7,1.5-3.4,1.6-3.7h2.3l0.5-1h-2.2L119.3-192.5z"/>
			<polygon id="Fill-35" class="st0" points="141.2,-184.6 142.5,-187.6 134.6,-187.6 137.7,-194.9 134,-194.9 130.8,-187.6 
				122.8,-187.6 121.5,-184.6 129.5,-184.6 126.3,-177.3 130.1,-177.3 133.2,-184.6 			"/>
		</g>
	</g>
</g>
</svg>
